<?xml version="1.0" encoding="UTF-8"?>
<svg width="444px" height="197px" viewBox="0 0 444 197" version="1.1" xmlns="http://www.w3.org/2000/svg" xmlns:xlink="http://www.w3.org/1999/xlink">
    <!-- Generator: Sketch 59.1 (86144) - https://sketch.com -->
    <title>push</title>
    <desc>Created with Sketch.</desc>
    <g id="Page-1" stroke="none" stroke-width="1" fill="none" fill-rule="evenodd">
        <g id="Desktop-Copy-5" transform="translate(-60.000000, -453.000000)">
            <g id="push" transform="translate(60.000000, 452.000000)">
                <text id="Departed-YYZ" font-family="Menlo-BoldItalic, Menlo, monospace" font-size="12" font-style="italic" font-weight="bold" fill="#202020">
                    <tspan x="215.152344" y="29">Departed YYZ</tspan>
                </text>
                <text id="Left-London-HQ" font-family="Menlo-BoldItalic, Menlo, monospace" font-size="12" font-style="italic" font-weight="bold" fill="#202020">
                    <tspan x="207.427734" y="88">Left London HQ</tspan>
                </text>
                <text id="Trip-completed" font-family="Menlo-BoldItalic, Menlo, monospace" font-size="12" font-style="italic" font-weight="bold" fill="#202020">
                    <tspan x="207.427734" y="147">Trip completed</tspan>
                </text>
                <rect id="Rectangle-Copy-14" fill="#F5F5F5" x="0" y="56" width="87" height="28" rx="5"></rect>
                <rect id="Rectangle-Copy-15" fill="#F5F5F5" x="0" y="89" width="87" height="28" rx="5"></rect>
                <rect id="Rectangle-Copy-16" fill="#F5F5F5" x="0" y="122" width="87" height="28" rx="5"></rect>
                <rect id="Rectangle-Copy-17" fill="#F5F5F5" x="0" y="155" width="87" height="28" rx="5"></rect>
                <rect id="Rectangle-Copy-18" fill="#F5F5F5" x="92" y="89" width="93" height="28" rx="5"></rect>
                <rect id="Rectangle-Copy-19" fill="#F5F5F5" x="92" y="122" width="93" height="28" rx="5"></rect>
                <rect id="Rectangle-Copy-20" fill="#F5F5F5" x="92" y="155" width="93" height="28" rx="5"></rect>
                <rect id="Rectangle-Copy-21" fill="#F5F5F5" x="92" y="56" width="93" height="28" rx="5"></rect>
                <rect id="Rectangle-Copy-22" fill="#CCCCCC" x="0" y="23" width="87" height="28" rx="5"></rect>
                <rect id="Rectangle-Copy-23" fill="#CCCCCC" x="92" y="23" width="93" height="28" rx="5"></rect>
                <text id="43.683117-copy-2" font-family="Menlo-Regular, Menlo, monospace" font-size="12" font-weight="normal" fill="#202020">
                    <tspan x="14.9785156" y="74">43.683117 </tspan>
                </text>
                <text id="-79.611421-copy-2" font-family="Menlo-Regular, Menlo, monospace" font-size="12" font-weight="normal" fill="#202020">
                    <tspan x="105.753906" y="74">-79.611421</tspan>
                </text>
                <text id="51.509855-copy-2" font-family="Menlo-Regular, Menlo, monospace" font-size="12" font-weight="normal" fill="#202020">
                    <tspan x="14.9785156" y="107">51.509855 </tspan>
                </text>
                <text id="-0.123746-copy-2" font-family="Menlo-Regular, Menlo, monospace" font-size="12" font-weight="normal" fill="#202020">
                    <tspan x="112.978516" y="107">-0.123746</tspan>
                </text>
                <text id="45.716540-copy-2" font-family="Menlo-Regular, Menlo, monospace" font-size="12" font-weight="normal" fill="#202020">
                    <tspan x="14.9785156" y="173">45.716540 </tspan>
                </text>
                <text id="-121.526191-copy-2" font-family="Menlo-Regular, Menlo, monospace" font-size="12" font-weight="normal" fill="#202020">
                    <tspan x="98.5292969" y="173">-121.526191</tspan>
                </text>
                <text id="27.814235-copy-2" font-family="Menlo-Regular, Menlo, monospace" font-size="12" font-weight="normal" fill="#202020">
                    <tspan x="14.9785156" y="140">27.814235 </tspan>
                </text>
                <text id="-97.392479-copy-2" font-family="Menlo-Regular, Menlo, monospace" font-size="12" font-weight="normal" fill="#202020">
                    <tspan x="105.753906" y="140">-97.392479</tspan>
                </text>
                <text id="latitude-copy-2" font-family="Menlo-Bold, Menlo, monospace" font-size="12" font-weight="bold" fill="#202020">
                    <tspan x="12" y="42">latitude</tspan>
                </text>
                <text id="longitude-copy-2" font-family="Menlo-Bold, Menlo, monospace" font-size="12" font-weight="bold" fill="#202020">
                    <tspan x="105" y="42">longitude</tspan>
                </text>
                <path d="M414.5,3.75277675 C411.71539,2.1450816 408.28461,2.1450816 405.5,3.75277675 L381.725009,17.4792741 C378.9404,19.0869692 377.225009,22.0581124 377.225009,25.2735027 L377.225009,52.7264973 C377.225009,55.9418876 378.9404,58.9130308 381.725009,60.5207259 L405.5,74.2472233 C408.28461,75.8549184 411.71539,75.8549184 414.5,74.2472233 L438.274991,60.5207259 C441.0596,58.9130308 442.774991,55.9418876 442.774991,52.7264973 L442.774991,25.2735027 C442.774991,22.0581124 441.0596,19.0869692 438.274991,17.4792741 L414.5,3.75277675 Z" id="Polygon-Copy-3" stroke="#979797" stroke-width="2" fill="#F5F5F5"></path>
                <text id="APP-Copy-3" font-family="Menlo-Regular, Menlo, monospace" font-size="12" font-weight="normal" fill="#202020">
                    <tspan x="399.326172" y="43">APP</tspan>
                </text>
                <path d="M375.5,63.7527767 C372.71539,62.1450816 369.28461,62.1450816 366.5,63.7527767 L342.725009,77.4792741 C339.9404,79.0869692 338.225009,82.0581124 338.225009,85.2735027 L338.225009,112.726497 C338.225009,115.941888 339.9404,118.913031 342.725009,120.520726 L366.5,134.247223 C369.28461,135.854918 372.71539,135.854918 375.5,134.247223 L399.274991,120.520726 C402.0596,118.913031 403.774991,115.941888 403.774991,112.726497 L403.774991,85.2735027 C403.774991,82.0581124 402.0596,79.0869692 399.274991,77.4792741 L375.5,63.7527767 Z" id="Polygon-Copy-4" stroke="#979797" stroke-width="2" fill="#F5F5F5"></path>
                <text id="APP-Copy-4" font-family="Menlo-Regular, Menlo, monospace" font-size="12" font-weight="normal" fill="#202020">
                    <tspan x="360.326172" y="103">APP</tspan>
                </text>
                <path d="M412.5,124.752777 C409.71539,123.145082 406.28461,123.145082 403.5,124.752777 L379.725009,138.479274 C376.9404,140.086969 375.225009,143.058112 375.225009,146.273503 L375.225009,173.726497 C375.225009,176.941888 376.9404,179.913031 379.725009,181.520726 L403.5,195.247223 C406.28461,196.854918 409.71539,196.854918 412.5,195.247223 L436.274991,181.520726 C439.0596,179.913031 440.774991,176.941888 440.774991,173.726497 L440.774991,146.273503 C440.774991,143.058112 439.0596,140.086969 436.274991,138.479274 L412.5,124.752777 Z" id="Polygon-Copy-5" stroke="#979797" stroke-width="2" fill="#F5F5F5"></path>
                <text id="APP-Copy-5" font-family="Menlo-Regular, Menlo, monospace" font-size="12" font-weight="normal" fill="#202020">
                    <tspan x="397.326172" y="164">APP</tspan>
                </text>
                <path id="Line-4-Copy-8" d="M315,96.5 L324,101 L315,105.5 L315,101.5 L198.5,101.5 L198.5,100.5 L315,100.5 L315,96.5 Z" fill="#131520" fill-rule="nonzero"></path>
                <path id="Line-4-Copy-10" d="M315,37.5 L324,42 L315,46.5 L315,42.5 L198.5,42.5 L198.5,41.5 L315,41.5 L315,37.5 Z" fill="#131520" fill-rule="nonzero"></path>
                <path id="Line-4-Copy-6" d="M315,155.5 L324,160 L315,164.5 L315,160.5 L198.5,160.5 L198.5,159.5 L315,159.5 L315,155.5 Z" fill="#131520" fill-rule="nonzero"></path>
            </g>
        </g>
    </g>
</svg>
