<svg width="40" height="40" viewBox="0 0 40 40" fill="none" xmlns="http://www.w3.org/2000/svg">
<path fill-rule="evenodd" clip-rule="evenodd" d="M11 40H35V16H11V40Z" fill="#C3C5DD"/>
<path fill-rule="evenodd" clip-rule="evenodd" d="M2 24H26V0H2V24Z" fill="#C3C5DD"/>
<path fill-rule="evenodd" clip-rule="evenodd" d="M3.87482 2.93807C3.87482 2.52386 4.2106 2.18807 4.62482 2.18807H29.9452C30.3594 2.18807 30.6952 2.52386 30.6952 2.93807V7.89284C30.6952 8.30705 30.3594 8.64284 29.9452 8.64284C29.5309 8.64284 29.1952 8.30705 29.1952 7.89284V3.68807H5.37482V27.9837C5.37482 28.3979 5.03903 28.7337 4.62482 28.7337C4.2106 28.7337 3.87482 28.3979 3.87482 27.9837V2.93807Z" fill="#4A4A4A"/>
<path fill-rule="evenodd" clip-rule="evenodd" d="M3.87488 27.9837C3.87488 27.5695 4.21066 27.2337 4.62488 27.2337H9.62716C10.0414 27.2337 10.3772 27.5695 10.3772 27.9837C10.3772 28.3979 10.0414 28.7337 9.62716 28.7337H4.62488C4.21066 28.7337 3.87488 28.3979 3.87488 27.9837Z" fill="#4A4A4A"/>
<mask id="mask0" mask-type="alpha" maskUnits="userSpaceOnUse" x="2" y="0" width="37" height="40">
<path fill-rule="evenodd" clip-rule="evenodd" d="M2 40H38.937V0.00558472H2V40Z" fill="white"/>
</mask>
<g mask="url(#mask0)">
<path fill-rule="evenodd" clip-rule="evenodd" d="M12.9734 11.9665C12.9734 11.5523 13.3092 11.2165 13.7234 11.2165H38.0561C38.4703 11.2165 38.8061 11.5523 38.8061 11.9665V35.9992C38.8061 36.4134 38.4703 36.7492 38.0561 36.7492H13.7234C13.3092 36.7492 12.9734 36.4134 12.9734 35.9992V11.9665ZM14.4734 12.7165V35.2492H37.3061V12.7165H14.4734Z" fill="#4A4A4A"/>
<path fill-rule="evenodd" clip-rule="evenodd" d="M12.9734 27.9837C12.9734 27.5695 13.3092 27.2337 13.7234 27.2337H38.0561C38.4703 27.2337 38.8061 27.5695 38.8061 27.9837C38.8061 28.3979 38.4703 28.7337 38.0561 28.7337H13.7234C13.3092 28.7337 12.9734 28.3979 12.9734 27.9837Z" fill="#4A4A4A"/>
<path fill-rule="evenodd" clip-rule="evenodd" d="M12.9734 19.9682C12.9734 19.554 13.3092 19.2182 13.7234 19.2182H38.0561C38.4703 19.2182 38.8061 19.554 38.8061 19.9682C38.8061 20.3824 38.4703 20.7182 38.0561 20.7182H13.7234C13.3092 20.7182 12.9734 20.3824 12.9734 19.9682Z" fill="#4A4A4A"/>
</g>
<path fill-rule="evenodd" clip-rule="evenodd" d="M22 11.25C22.4142 11.25 22.75 11.5858 22.75 12V36C22.75 36.4142 22.4142 36.75 22 36.75C21.5858 36.75 21.25 36.4142 21.25 36V12C21.25 11.5858 21.5858 11.25 22 11.25Z" fill="#4A4A4A"/>
<path fill-rule="evenodd" clip-rule="evenodd" d="M30 11.25C30.4142 11.25 30.75 11.5858 30.75 12V36C30.75 36.4142 30.4142 36.75 30 36.75C29.5858 36.75 29.25 36.4142 29.25 36V12C29.25 11.5858 29.5858 11.25 30 11.25Z" fill="#4A4A4A"/>
<path fill-rule="evenodd" clip-rule="evenodd" d="M4.28979 11.9475C4.28979 11.5332 4.62558 11.1975 5.03979 11.1975H9.93154C10.3458 11.1975 10.6815 11.5332 10.6815 11.9475C10.6815 12.3617 10.3458 12.6975 9.93154 12.6975H5.03979C4.62558 12.6975 4.28979 12.3617 4.28979 11.9475Z" fill="#4A4A4A"/>
<path fill-rule="evenodd" clip-rule="evenodd" d="M4.28979 19.8537C4.28979 19.4395 4.62558 19.1037 5.03979 19.1037H9.93154C10.3458 19.1037 10.6815 19.4395 10.6815 19.8537C10.6815 20.2679 10.3458 20.6037 9.93154 20.6037H5.03979C4.62558 20.6037 4.28979 20.2679 4.28979 19.8537Z" fill="#4A4A4A"/>
<path fill-rule="evenodd" clip-rule="evenodd" d="M21.8436 2.28078C22.2578 2.28078 22.5936 2.61657 22.5936 3.03078V7.92242C22.5936 8.33663 22.2578 8.67242 21.8436 8.67242C21.4294 8.67242 21.0936 8.33663 21.0936 7.92242V3.03078C21.0936 2.61657 21.4294 2.28078 21.8436 2.28078Z" fill="#4A4A4A"/>
<path fill-rule="evenodd" clip-rule="evenodd" d="M13.9373 2.28078C14.3515 2.28078 14.6873 2.61657 14.6873 3.03078V7.92242C14.6873 8.33663 14.3515 8.67242 13.9373 8.67242C13.5231 8.67242 13.1873 8.33663 13.1873 7.92242V3.03078C13.1873 2.61657 13.5231 2.28078 13.9373 2.28078Z" fill="#4A4A4A"/>
</svg>
