<svg width="40" height="40" viewBox="0 0 40 40" fill="none" xmlns="http://www.w3.org/2000/svg">
<path fill-rule="evenodd" clip-rule="evenodd" d="M36.121 20.0064C36.121 28.9667 28.8572 36.2306 19.8969 36.2306C10.9365 36.2306 3.67261 28.9667 3.67261 20.0064C3.67261 11.0461 10.9365 3.78229 19.8969 3.78229C28.8572 3.78229 36.121 11.0461 36.121 20.0064" fill="#C3C5DD"/>
<path fill-rule="evenodd" clip-rule="evenodd" d="M14.0782 0.316467C14.4924 0.316467 14.8282 0.652254 14.8282 1.06647V14.0905C14.8282 20.1536 13.2793 24.8378 10.9334 29.4787C10.7466 29.8484 10.2954 29.9966 9.92574 29.8097C9.55607 29.6229 9.40787 29.1717 9.59473 28.802C11.865 24.3107 13.3282 19.8592 13.3282 14.0905V1.06647C13.3282 0.652254 13.6639 0.316467 14.0782 0.316467Z" fill="#4A4A4A"/>
<path fill-rule="evenodd" clip-rule="evenodd" d="M3.90564 22.8286C5.47374 22.8286 6.74475 21.5574 6.74475 19.9893C6.74475 18.4212 5.47374 17.1502 3.90564 17.1502C2.33755 17.1502 1.06641 18.4212 1.06641 19.9893C1.06641 21.5574 2.33755 22.8286 3.90564 22.8286" fill="#C3C5DD"/>
<path fill-rule="evenodd" clip-rule="evenodd" d="M0.316406 19.9893C0.316406 18.007 1.92338 16.4002 3.90564 16.4002C5.88796 16.4002 7.49475 18.007 7.49475 19.9893C7.49475 21.9716 5.888 23.5786 3.90564 23.5786C1.92333 23.5786 0.316406 21.9716 0.316406 19.9893ZM3.90564 17.9002C2.75171 17.9002 1.81641 18.8355 1.81641 19.9893C1.81641 21.1432 2.75176 22.0786 3.90564 22.0786C5.05948 22.0786 5.99475 21.1432 5.99475 19.9893C5.99475 18.8354 5.05953 17.9002 3.90564 17.9002Z" fill="#4A4A4A"/>
<path fill-rule="evenodd" clip-rule="evenodd" d="M8.13284 0.316467C8.54706 0.316467 8.88284 0.652254 8.88284 1.06647V7.4506C8.83408 11.1216 8.75895 14.6299 6.391 17.9451C6.15024 18.2822 5.68183 18.3602 5.34477 18.1195C5.00771 17.8787 4.92964 17.4103 5.1704 17.0732C7.23051 14.1891 7.33353 11.1442 7.38284 7.43565V1.06647C7.38284 0.652254 7.71863 0.316467 8.13284 0.316467Z" fill="#4A4A4A"/>
<path fill-rule="evenodd" clip-rule="evenodd" d="M9.36659 33.8156H7.72807C6.85115 33.8156 6.13367 33.0981 6.13367 32.2212V30.5827C6.13367 29.7058 6.85115 28.9883 7.72807 28.9883H9.36659C10.2436 28.9883 10.961 29.7058 10.961 30.5827V32.2212C10.961 33.0981 10.2436 33.8156 9.36659 33.8156" fill="#C3C5DD"/>
<path fill-rule="evenodd" clip-rule="evenodd" d="M7.72807 29.7383C7.26536 29.7383 6.88367 30.12 6.88367 30.5827V32.2212C6.88367 32.6839 7.26536 33.0656 7.72807 33.0656H9.36659C9.82939 33.0656 10.211 32.684 10.211 32.2212V30.5827C10.211 30.1199 9.82939 29.7383 9.36659 29.7383H7.72807ZM5.38367 30.5827C5.38367 29.2916 6.43694 28.2383 7.72807 28.2383H9.36659C10.6579 28.2383 11.711 29.2916 11.711 30.5827V32.2212C11.711 33.5123 10.6579 34.5656 9.36659 34.5656H7.72807C6.43694 34.5656 5.38367 33.5123 5.38367 32.2212V30.5827Z" fill="#4A4A4A"/>
<path fill-rule="evenodd" clip-rule="evenodd" d="M25.8281 0.316467C26.2423 0.316467 26.5781 0.652254 26.5781 1.06647V14.0905C26.5781 19.8592 28.0413 24.3107 30.3116 28.802C30.4985 29.1717 30.3503 29.6228 29.9806 29.8097C29.611 29.9966 29.1598 29.8484 28.9729 29.4787C26.627 24.8378 25.0781 20.1536 25.0781 14.0905V1.06647C25.0781 0.652254 25.4139 0.316467 25.8281 0.316467Z" fill="#4A4A4A"/>
<path fill-rule="evenodd" clip-rule="evenodd" d="M19.9531 38.8898C18.385 38.8898 17.114 37.6186 17.114 36.0505C17.114 34.4826 18.385 33.2114 19.9531 33.2114C21.5212 33.2114 22.7924 34.4826 22.7924 36.0505C22.7924 37.6186 21.5212 38.8898 19.9531 38.8898" fill="#C3C5DD"/>
<path fill-rule="evenodd" clip-rule="evenodd" d="M19.9531 33.9614C18.7993 33.9614 17.864 34.8968 17.864 36.0505C17.864 37.2045 18.7993 38.1398 19.9531 38.1398C21.107 38.1398 22.0424 37.2044 22.0424 36.0505C22.0424 34.8968 21.107 33.9614 19.9531 33.9614ZM16.364 36.0505C16.364 34.0684 17.9708 32.4614 19.9531 32.4614C21.9354 32.4614 23.5424 34.0683 23.5424 36.0505C23.5424 38.0328 21.9354 39.6398 19.9531 39.6398C17.9708 39.6398 16.364 38.0328 16.364 36.0505Z" fill="#4A4A4A"/>
<path fill-rule="evenodd" clip-rule="evenodd" d="M19.9531 0.316467C20.3673 0.316467 20.7031 0.652254 20.7031 1.06647V33.2114C20.7031 33.6256 20.3673 33.9614 19.9531 33.9614C19.5389 33.9614 19.2031 33.6256 19.2031 33.2114V1.06647C19.2031 0.652254 19.5389 0.316467 19.9531 0.316467Z" fill="#4A4A4A"/>
<path fill-rule="evenodd" clip-rule="evenodd" d="M36.0006 22.8286C34.4326 22.8286 33.1615 21.5574 33.1615 19.9893C33.1615 18.4212 34.4326 17.1502 36.0006 17.1502C37.5687 17.1502 38.8398 18.4212 38.8398 19.9893C38.8398 21.5574 37.5687 22.8286 36.0006 22.8286" fill="#C3C5DD"/>
<path fill-rule="evenodd" clip-rule="evenodd" d="M36.0006 17.9002C34.8468 17.9002 33.9115 18.8355 33.9115 19.9893C33.9115 21.1432 34.8469 22.0786 36.0006 22.0786C37.1545 22.0786 38.0898 21.1432 38.0898 19.9893C38.0898 18.8355 37.1545 17.9002 36.0006 17.9002ZM32.4115 19.9893C32.4115 18.007 34.0184 16.4002 36.0006 16.4002C37.9829 16.4002 39.5898 18.007 39.5898 19.9893C39.5898 21.9716 37.9829 23.5786 36.0006 23.5786C34.0184 23.5786 32.4115 21.9716 32.4115 19.9893Z" fill="#4A4A4A"/>
<path fill-rule="evenodd" clip-rule="evenodd" d="M31.7734 0.316467C32.1876 0.316467 32.5234 0.652254 32.5234 1.06647V7.43564C32.5728 11.1442 32.6757 14.1891 34.7358 17.0732C34.9766 17.4103 34.8985 17.8787 34.5615 18.1195C34.2244 18.3602 33.756 18.2822 33.5152 17.9451C31.1473 14.6299 31.0723 11.1216 31.0234 7.45062L31.0233 7.44064H31.0234V1.06647C31.0234 0.652254 31.3592 0.316467 31.7734 0.316467Z" fill="#4A4A4A"/>
<path fill-rule="evenodd" clip-rule="evenodd" d="M30.5397 33.8156H32.1782C33.0551 33.8156 33.7726 33.0981 33.7726 32.2212V30.5827C33.7726 29.7058 33.0551 28.9883 32.1782 28.9883H30.5397C29.6627 28.9883 28.9453 29.7058 28.9453 30.5827V32.2212C28.9453 33.0981 29.6627 33.8156 30.5397 33.8156" fill="#C3C5DD"/>
<path fill-rule="evenodd" clip-rule="evenodd" d="M28.1953 30.5827C28.1953 29.2916 29.2485 28.2383 30.5397 28.2383H32.1782C33.4693 28.2383 34.5226 29.2916 34.5226 30.5827V32.2212C34.5226 33.5123 33.4693 34.5656 32.1782 34.5656H30.5397C29.2485 34.5656 28.1953 33.5123 28.1953 32.2212V30.5827ZM30.5397 29.7383C30.0769 29.7383 29.6953 30.12 29.6953 30.5827V32.2212C29.6953 32.6839 30.0769 33.0656 30.5397 33.0656H32.1782C32.6409 33.0656 33.0226 32.6839 33.0226 32.2212V30.5827C33.0226 30.12 32.6409 29.7383 32.1782 29.7383H30.5397Z" fill="#4A4A4A"/>
</svg>
