<svg width="40" height="40" viewBox="0 0 40 40" fill="none" xmlns="http://www.w3.org/2000/svg">
<g clip-path="url(#clip0)">
<path d="M19.8441 30.4826C25.6378 30.4826 30.3344 25.7859 30.3344 19.9923C30.3344 14.1987 25.6378 9.50201 19.8441 9.50201C14.0505 9.50201 9.35382 14.1987 9.35382 19.9923C9.35382 25.7859 14.0505 30.4826 19.8441 30.4826Z" fill="#C3C5DD"/>
<path d="M35.2117 25.3865C34.0026 24.6892 32.5069 24.9272 31.5678 25.874L24.3734 21.7209C24.5781 21.1861 24.6907 20.6065 24.6907 20.0013C24.6907 19.3961 24.5781 18.8165 24.3734 18.2817L31.5678 14.1273C32.1397 14.703 32.9163 15.0178 33.7109 15.0178C34.2214 15.0178 34.7383 14.8886 35.2117 14.6147C35.9077 14.213 36.4067 13.563 36.6152 12.7864C36.8238 12.0098 36.7163 11.1973 36.3146 10.5013C35.4842 9.06317 33.6392 8.56929 32.2011 9.39838C31.5051 9.80014 31.0061 10.4501 30.7975 11.2267C30.6568 11.75 30.6606 12.2887 30.8001 12.7979L23.6044 16.9523C22.8738 16.0567 21.8285 15.4272 20.6386 15.2327V6.92007C21.9232 6.57589 22.8713 5.40263 22.8713 4.01057C22.8713 2.35111 21.5202 1 19.8594 1C18.1987 1 16.8476 2.35111 16.8476 4.01185C16.8476 5.41158 17.8072 6.59125 19.1033 6.92774V15.2289C17.9044 15.4183 16.8501 16.0503 16.1144 16.9523L8.91874 12.7979C9.0582 12.2887 9.06204 11.75 8.9213 11.2267C8.71275 10.4501 8.21504 9.80014 7.51773 9.39838C6.07962 8.56801 4.23463 9.06317 3.40426 10.5013C3.00251 11.1973 2.89632 12.0085 3.10359 12.7851C3.31214 13.5618 3.80985 14.2117 4.50716 14.6135C4.98056 14.886 5.49746 15.0165 6.00797 15.0165C6.80123 15.0165 7.57914 14.7018 8.15106 14.126L15.3455 18.2804C15.1408 18.8152 15.0282 19.3948 15.0282 20C15.0282 20.6052 15.1408 21.1848 15.3455 21.7196L8.15106 25.8727C7.21194 24.9259 5.71497 24.6879 4.50716 25.3853C3.81113 25.787 3.31214 26.437 3.10359 27.2136C2.89504 27.9902 3.00251 28.8027 3.40426 29.4987C3.96083 30.4634 4.97544 31.0034 6.01692 31.0034C6.52743 31.0034 7.04433 30.8741 7.51773 30.6003C8.21376 30.1986 8.71275 29.5486 8.9213 28.772C9.06204 28.2487 9.0582 27.71 8.91874 27.2008L16.1144 23.0464C16.8501 23.9484 17.9031 24.5805 19.1033 24.7698V33.071C17.8072 33.4075 16.8476 34.5871 16.8476 35.9869C16.8476 37.6476 18.1987 38.9987 19.8594 38.9987C21.5202 38.9987 22.8713 37.6476 22.8713 35.9869C22.8713 34.5961 21.9232 33.4228 20.6386 33.0774V24.766C21.8285 24.5728 22.8738 23.9433 23.6044 23.0464L30.8001 27.2008C30.6606 27.71 30.6568 28.2487 30.7975 28.772C31.0061 29.5486 31.5038 30.1986 32.2011 30.6003C32.6745 30.8729 33.1914 31.0034 33.7019 31.0034C34.7434 31.0034 35.758 30.4634 36.3146 29.4987C36.7163 28.8014 36.8238 27.9902 36.6152 27.2136C36.4067 26.4383 35.9077 25.7883 35.2117 25.3865ZM32.2791 11.6234C32.3815 11.2421 32.6259 10.9235 32.9675 10.7265C33.6725 10.3196 34.5771 10.5614 34.9839 11.2664C35.181 11.608 35.2334 12.0059 35.1311 12.3872C35.0287 12.7685 34.7843 13.0858 34.4427 13.2841C33.7377 13.691 32.8331 13.4492 32.4263 12.7442C32.2292 12.4026 32.1781 12.0046 32.2791 11.6234ZM5.27483 13.2841C4.93322 13.0871 4.68884 12.7685 4.58648 12.3872C4.48413 12.0059 4.53658 11.608 4.73362 11.2664C5.00615 10.793 5.50386 10.5281 6.01436 10.5281C6.26514 10.5281 6.51847 10.5921 6.75005 10.7252C7.09167 10.9222 7.33605 11.2408 7.4384 11.6221C7.54076 12.0034 7.4883 12.4013 7.29127 12.7416C6.8844 13.4492 5.97982 13.691 5.27483 13.2841ZM7.4384 28.3766C7.33605 28.7579 7.09167 29.0765 6.75005 29.2735C6.04507 29.6804 5.14049 29.4386 4.73362 28.7336C4.53658 28.392 4.48413 27.9941 4.58648 27.6128C4.68884 27.2315 4.93322 26.9142 5.27483 26.7159C5.9619 26.3193 6.83706 26.5406 7.258 27.2034C7.26696 27.2226 7.27591 27.2405 7.28615 27.2597C7.2951 27.275 7.30662 27.2904 7.31685 27.3044C7.49214 27.6345 7.53564 28.0133 7.4384 28.3766ZM18.3829 4.01185C18.3829 3.19811 19.0457 2.53535 19.8594 2.53535C20.6732 2.53535 21.3359 3.19811 21.3359 4.01185C21.3359 4.82559 20.6732 5.48835 19.8594 5.48835C19.0457 5.48835 18.3829 4.82559 18.3829 4.01185ZM21.3359 35.9881C21.3359 36.8019 20.6732 37.4646 19.8594 37.4646C19.0457 37.4646 18.3829 36.8019 18.3829 35.9881C18.3829 35.1744 19.0457 34.5117 19.8594 34.5117C20.6732 34.5117 21.3359 35.1744 21.3359 35.9881ZM19.8594 23.2959C18.0426 23.2959 16.5635 21.8168 16.5635 20C16.5635 19.4345 16.7068 18.9009 16.9589 18.4352C16.9781 18.4096 16.996 18.384 17.0126 18.3559C17.028 18.329 17.0408 18.3022 17.0536 18.274C17.6344 17.3323 18.6746 16.7041 19.8607 16.7041C21.0199 16.7041 22.0396 17.3055 22.6282 18.2126C22.6448 18.2638 22.6665 18.315 22.6947 18.3649C22.7228 18.4135 22.7561 18.4557 22.7919 18.4954C23.0248 18.947 23.1566 19.4588 23.1566 20C23.1553 21.8168 21.6762 23.2959 19.8594 23.2959ZM34.9839 28.7323C34.5771 29.4373 33.6725 29.6804 32.9675 29.2723C32.6259 29.0752 32.3815 28.7566 32.2791 28.3754C32.1768 27.9941 32.2292 27.5962 32.4263 27.2558C32.6988 26.7824 33.1965 26.5176 33.707 26.5176C33.9578 26.5176 34.2111 26.5816 34.4427 26.7146C34.7843 26.9117 35.0287 27.2302 35.1311 27.6115C35.2334 27.9928 35.181 28.3907 34.9839 28.7323Z" fill="#4A4A4A"/>
</g>
<defs>
<clipPath id="clip0">
<rect x="3" y="1" width="33.7189" height="38" fill="white"/>
</clipPath>
</defs>
</svg>
